# xmcd CD database file
#
# Track frame offsets:
#	150
#	9975
#	22200
#	36450
#	46200
#	58875
#	72075
#	89250
#	102300
#	122700
#	134850
#	147450
#	157800
#	170475
#	186150
#
# Disc length: 2674 seconds
#
# Revision: 0
# Processed by: cddbd v1.4PL0 Copyright (c) Steve Scherf et al.
# Submitted via: CDex 1.40Beta9
#
DISCID=da0a700f
DTITLE=Jan Vancura - Zlate hity
DYEAR=2001
DGENRE=Country
TTITLE0=Laska je vec kouzelna
TTITLE1=Trpaslici svatba
TTITLE2=Pole s bavlnou
TTITLE3=Modrý mesic
TTITLE4=Mam radost
TTITLE5=Brneni
TTITLE6=Drak od Bile skaly
TTITLE7=Vitam Vas
TTITLE8=Kopej hrob muj
TTITLE9=Zvednete kotvy
TTITLE10=Jestli se chces stat mou zenou
TTITLE11=Ve svych rukou mam
TTITLE12=Kamarad
TTITLE13=House Of The Rising Sun
TTITLE14=Krcma blues
EXTD=YEAR: 2001 ID3G: 2
EXTT0=
EXTT1=
EXTT2=
EXTT3=
EXTT4=
EXTT5=
EXTT6=
EXTT7=
EXTT8=
EXTT9=
EXTT10=
EXTT11=
EXTT12=
EXTT13=
EXTT14=
PLAYORDER=
